<?xml version="1.0" encoding="UTF-8"?>
<svg width="143px" height="35px" viewBox="0 0 143 35" version="1.1" xmlns="http://www.w3.org/2000/svg" xmlns:xlink="http://www.w3.org/1999/xlink">
    <!-- Generator: Sketch 52.1 (67048) - http://www.bohemiancoding.com/sketch -->
    <title>Dribbble Logo</title>
    <desc>Created with Sketch.</desc>
    <g id="Page-1" stroke="none" stroke-width="1" fill="none" fill-rule="evenodd">
        <g id="Stylefit-website" transform="translate(-790.000000, -936.000000)" fill="#DDDDDD">
            <g id="#3" transform="translate(0.000000, 795.000000)">
                <path d="M932.595724,168.58076 C926.627572,178.714254 917.175531,175.773795 914.33705,173.471743 C913.129257,174.292485 911.010507,176.091546 908.185761,175.883992 C902.169994,175.44183 900.015684,166.832288 900.015684,166.832288 C900.058874,166.866677 898.223835,167.466415 897.231991,167.455869 C897.219172,169.980607 895.039834,176.011612 889.15852,175.934734 C882.558696,175.848533 881.216907,166.001459 881.216907,166.001459 C881.216907,166.001459 880.560206,166.914821 878.062819,167.824668 C878.18842,165.884996 878.096699,175.639297 870.186525,175.782812 C863.933137,175.896219 862.245065,165.849385 862.245065,165.849385 C862.245065,165.849385 861.160127,166.978402 859.057707,167.369668 C859.191397,165.398511 858.974226,175.815826 851.062831,175.782812 C845.716585,175.760345 843.889787,169.594079 844.032023,168.738184 C844.213177,167.647376 842.225065,175.936262 837.031891,175.807114 C834.888875,175.743839 833.291457,174.190389 832.288778,172.118206 C830.946684,173.656524 828.998099,175.807114 826.812046,175.807114 C822.888474,175.807114 821.159044,172.520323 821.451759,163.133446 C821.476635,162.020018 821.396665,161.581983 820.291429,161.415847 C819.628318,161.304887 818.948572,161.09504 818.230215,160.984232 C817.999766,161.754079 816.045535,175.556612 809.326671,175.818577 C807.072552,175.906306 805.840035,173.951197 804.827742,172.499385 C803.27626,174.555214 801.228018,175.883992 798.310177,175.883992 C793.367597,175.883992 790,171.882376 790,166.946459 C790,162.010389 793.367597,158.008926 798.310177,158.008926 C799.184049,158.008926 799.429301,158.134559 800.227934,158.367791 C798.585952,143.397114 802.463282,141.05731 805.855297,141.05731 C809.111485,141.05731 814.674749,148.626633 806.84714,167.825891 C808.585116,173.552594 812.331503,173.228882 814.132356,161.440302 C814.498327,159.043642 813.518693,155.81004 815.042856,155.358861 C817.82838,154.533992 818.124147,157.008751 819.430377,157.420957 C820.81154,157.856852 821.617651,157.814363 822.943873,158.091459 C825.209439,158.534537 826.093536,159.753577 825.817456,162.468599 C825.485824,165.903642 824.906041,170.902987 826.674387,171.512507 C827.949331,171.954974 830.277316,169.307201 830.685713,167.858293 C831.09411,166.409385 831.179269,165.913577 831.215439,164.850891 C831.270838,162.579254 831.339972,160.914537 831.726851,159.196939 C831.89259,158.532092 832.081222,158.091764 832.832086,158.061655 C833.449718,158.046066 834.57983,157.859756 835.077202,158.247507 C835.740465,158.746219 835.65729,159.252572 835.581136,160.584559 C834.810126,179.579625 840.744702,170.097376 842.51427,162.504516 C841.884276,153.919123 842.316481,141.214581 847.68913,141.001371 C850.48259,140.890716 851.717701,143.132092 851.853681,144.805214 C852.237965,149.530673 850.085181,157.358293 847.254636,162.622507 C845.636462,173.363533 854.328939,175.48707 855.718649,166.913751 C853.444689,165.830738 850.986829,161.447638 852.986693,159.311874 C854.109021,158.113162 858.780253,159.835345 858.857171,163.591197 C861.148528,162.977398 861.454216,161.681939 861.486112,161.896524 C860.856271,153.311131 861.440328,141.214581 866.812671,141.001371 C869.606436,140.890716 870.841395,143.132092 870.977527,144.805214 C871.361658,149.530673 869.209028,157.358293 866.378177,162.622507 C864.760156,173.363533 873.45248,175.48707 874.842495,166.913751 C873.158544,166.588358 869.6043,161.926633 871.654984,159.311874 C872.75091,157.914625 877.405202,160.820389 877.926381,163.715454 C880.127848,163.091568 880.426821,161.836917 880.457954,162.048446 C879.828113,153.463206 880.41217,141.366502 885.784513,141.153446 C888.578279,141.042638 889.813237,143.284319 889.949369,144.957288 C890.333653,149.682594 888.18087,157.510367 885.350324,162.774581 C883.73215,173.515607 892.424322,175.638992 893.814337,167.065673 C891.500545,166.679603 888.212156,161.757441 890.8588,159.239275 C891.91642,158.232987 895.95659,160.844843 896.902344,163.824428 C898.216356,163.773686 899.034524,163.320214 899.209878,163.27421 C897.111884,153.19528 898.67359,141.102245 904.45311,141.001371 C907.576676,140.946808 910.630801,142.692681 909.290081,152.281306 C908.011017,161.430367 903.411362,165.269668 903.422045,165.328358 C903.689884,166.424363 906.049918,175.596961 911.993041,170.757179 C911.685369,170.059319 911.37724,169.346786 911.204938,168.483402 C910.219963,163.453795 912.154812,157.773249 917.413763,156.854996 C920.426683,156.329079 923.264859,157.797856 923.713546,161.110018 C924.452354,166.52921 919.565631,170.454101 917.707546,171.305411 C916.875338,170.831764 925.25175,176.212136 930.222717,165.430302 C930.511006,164.814668 930.858815,164.866939 931.308876,165.184232 C931.626773,165.408446 933.437699,167.126502 932.595724,168.58076 L932.595724,168.58076 Z M801.905475,165.614778 C801.652592,164.85731 801.133397,163.188926 800.949801,162.465695 C799.939187,161.585192 799.217624,161.442288 797.919789,161.442288 C795.036133,161.442288 793.338905,164.112529 793.338905,166.991546 C793.338905,169.870869 795.187985,172.541109 798.07164,172.541109 C800.570707,172.541109 802.472744,170.839406 803.052832,168.43052 C802.646725,167.491328 802.243822,166.628402 801.905475,165.614778 L801.905475,165.614778 Z M805.784636,145.020105 C803.75837,145.020105 803.070994,149.860804 803.204379,153.990498 C803.322503,157.641502 804.341053,160.855847 804.869558,162.295738 C805.003707,162.476546 804.978983,162.359013 805.09848,162.55052 C808.616708,154.830651 807.157711,145.020105 805.784636,145.020105 L805.784636,145.020105 Z M847.978182,145.172332 C845.359161,144.871393 845.376101,155.796743 845.701476,158.247507 C847.061273,156.068337 849.424207,145.758773 847.978182,145.172332 L847.978182,145.172332 Z M867.101876,145.172332 C864.482855,144.871393 864.499642,155.796743 864.82517,158.247507 C866.184967,156.068337 868.547748,145.758773 867.101876,145.172332 L867.101876,145.172332 Z M886.073718,145.324254 C883.454697,145.023468 883.471637,155.948817 883.797164,158.399581 C885.156809,156.220411 887.519743,145.910847 886.073718,145.324254 L886.073718,145.324254 Z M904.742162,144.532703 C900.661702,145.35314 901.612034,158.977463 902.23165,161.366786 C907.037793,154.755913 907.136687,144.284035 904.742162,144.532703 L904.742162,144.532703 Z M920.033547,161.55814 C919.826602,160.689712 918.789127,160.225083 918.072906,160.339712 C916.024511,160.619865 914.037315,163.175323 914.806493,167.065673 C914.977574,167.931961 915.406116,168.729472 915.399249,168.703031 C919.984253,165.622572 920.373878,163.194887 920.033547,161.55814 L920.033547,161.55814 Z M833.63545,155.054712 C832.000794,155.054712 830.67564,153.72731 830.67564,152.089799 C830.67564,150.452594 832.000794,149.125192 833.63545,149.125192 C835.269954,149.125192 836.595108,150.452594 836.595108,152.089799 C836.595108,153.72731 835.269954,155.054712 833.63545,155.054712 L833.63545,155.054712 Z" id="Dribbble-Logo"></path>
            </g>
        </g>
    </g>
</svg>