<?xml version="1.0" encoding="UTF-8"?>
<svg width="54px" height="54px" viewBox="0 0 54 54" version="1.1" xmlns="http://www.w3.org/2000/svg" xmlns:xlink="http://www.w3.org/1999/xlink">
    <!-- Generator: Sketch 52.1 (67048) - http://www.bohemiancoding.com/sketch -->
    <title>GE Logo</title>
    <desc>Created with Sketch.</desc>
    <g id="Page-1" stroke="none" stroke-width="1" fill="none" fill-rule="evenodd">
        <g id="Stylefit-website" transform="translate(-684.000000, -926.000000)" fill="#DDDDDD">
            <g id="#3" transform="translate(0.000000, 795.000000)">
                <path d="M706.078041,145.537531 C705.095448,146.210298 704.493498,147.281414 703.971219,148.325973 C703.41353,149.503315 702.97092,150.760327 702.917807,152.079304 C703.289599,151.911113 703.652539,151.689808 703.953514,151.41539 C705.183969,150.335422 706.263937,149.060705 706.989818,147.582389 C707.246531,147.051257 707.458984,146.449307 707.317349,145.847358 C707.131453,145.360487 706.47639,145.236557 706.078041,145.537531 L706.078041,145.537531 Z M718.834056,146.050959 C717.683271,147.38764 717.045913,149.166932 717.072469,150.937371 C718.36489,149.866255 719.568789,148.609243 720.374339,147.122074 C720.604496,146.644056 720.914323,145.865062 720.321225,145.519827 C719.790094,145.236557 719.188144,145.643758 718.834056,146.050959 L718.834056,146.050959 Z M701.368673,163.188811 C700.235592,164.206814 699.129067,165.393008 698.721866,166.889029 C698.518266,167.703431 698.474005,168.721434 699.155624,169.314531 C699.863799,169.969593 700.943767,169.774845 701.767022,169.465018 C703.360417,168.854217 704.325306,167.313934 704.971517,165.809061 C705.723953,163.9501 706.19312,161.967208 706.387868,159.975464 C704.58202,160.80757 702.891251,161.905242 701.368673,163.188811 L701.368673,163.188811 Z M705.1043,143.908727 C706.095746,143.386447 707.36161,143.23596 708.37076,143.784796 C709.185162,144.245111 709.503841,145.254261 709.424172,146.139481 C709.273684,147.892215 708.423873,149.52102 707.352758,150.89311 C706.201972,152.291757 704.776768,153.522212 703.068295,154.186127 C703.201077,154.734963 703.617131,155.310356 704.227932,155.310356 C705.3079,155.345765 706.246233,154.664146 707.025226,153.991379 C707.582915,153.566473 707.609471,152.822889 707.875037,152.22094 C708.255682,151.291459 708.769109,150.291161 709.707442,149.813142 C710.150052,149.582985 710.831671,149.538724 711.132645,150.00789 C711.469029,150.645249 711.168054,151.371129 710.849375,151.946521 C710.406765,152.78748 709.716294,153.43369 709.167458,154.186127 C708.963857,154.885451 708.919596,155.620183 708.910744,156.346063 C709.672033,156.00968 710.353652,155.531661 711.079532,155.106756 C712.327692,154.301206 713.628965,153.548769 714.788603,152.610436 C714.921386,152.158974 714.744342,151.663251 714.762046,151.194085 C714.691228,148.91907 715.479074,146.590943 717.028208,144.909025 C717.993098,143.891023 719.444858,143.173995 720.861209,143.528083 C721.71102,143.687422 722.383787,144.377893 722.622796,145.192296 C722.923771,146.422751 722.507718,147.706319 721.861508,148.750879 C720.746131,150.494761 719.126179,151.822591 717.488523,153.044194 C717.709827,153.59303 718.019654,154.212684 718.603899,154.407432 C719.45371,154.248093 720.312373,154.017935 721.171036,154.194979 C721.746429,154.310058 722.445753,154.487102 722.729023,155.062495 C722.985737,155.620183 722.490014,156.195576 721.976586,156.37262 C720.887766,156.726708 719.728128,156.523107 718.621604,156.443437 C717.293774,156.762116 716.142989,157.629632 715.319734,158.700747 C714.036166,160.382665 713.637817,162.613418 713.912235,164.684832 C714.186653,166.402158 715.045316,168.128337 716.559042,169.057817 C718.267516,170.146637 720.719574,169.91648 722.135926,168.447016 C723.463755,167.066073 723.888661,164.87958 723.145076,163.109141 C722.826397,162.339 722.15363,161.675085 721.303819,161.542302 C720.312373,161.320997 719.135031,161.958356 718.993396,163.011767 C718.851761,163.826169 719.418301,164.498936 719.89632,165.074329 C720.268112,165.454973 720.312373,166.163149 719.852059,166.499532 C719.143883,166.986403 718.152437,166.641168 717.585897,166.074627 C716.178397,164.693684 716.222658,162.197365 717.568192,160.781013 C719.276666,158.824678 722.67591,158.789269 724.419792,160.710196 C726.287606,162.78161 726.517763,166.092331 725.083707,168.46472 C724.012591,170.323681 722.065108,171.669215 719.931729,171.97019 C717.612453,172.315425 715.098429,171.580693 713.469625,169.854515 C710.282835,166.605759 710.327096,160.896092 713.372251,157.558814 C714.186653,156.585072 715.266621,155.894601 716.346589,155.248391 C716.10758,154.938564 715.868571,154.628737 715.620709,154.327762 C713.522739,155.841488 711.327394,157.222431 709.078936,158.488295 C708.689439,158.62993 708.760257,159.090244 708.707144,159.417775 C708.503543,162.188513 708.273386,165.083181 706.892443,167.561796 C705.954111,169.314531 704.546611,170.925631 702.652241,171.642659 C701.147368,172.209199 699.332668,172.262312 697.960577,171.350536 C696.6416,170.51843 696.039651,168.871921 696.137025,167.367048 C696.349477,165.454973 697.438298,163.728795 698.81924,162.427522 C700.722462,160.692492 703.024034,159.488593 705.281344,158.302398 C705.741658,158.045685 706.246233,157.850936 706.653434,157.523405 C706.803921,157.107352 706.830478,156.65589 706.874739,156.222132 C705.697397,156.930308 704.21908,157.505701 702.873546,156.956865 C701.775874,156.531959 701.085403,155.478548 700.740167,154.39858 C699.695608,154.292353 698.651049,153.8763 697.987134,153.035342 C696.836348,151.654399 696.756678,149.547576 697.597637,147.980737 C697.872055,147.423049 698.500561,147.122074 699.111363,147.157483 C699.235293,147.396492 699.456598,147.635502 699.376929,147.927624 C699.191032,148.945627 698.836945,149.999038 699.173328,151.025893 C699.34152,151.725217 699.916913,152.282905 700.642793,152.380279 C700.79328,150.716066 701.120811,149.051853 701.899805,147.564684 C702.634537,146.104072 703.643687,144.696573 705.1043,143.908727 L705.1043,143.908727 Z M704.493498,134.817521 C700.076252,136.012568 695.942276,138.615114 693.322026,142.412706 C691.551587,144.917877 690.533584,147.874511 690.011305,150.866553 C689.763443,152.743219 689.666069,154.779224 690.59555,156.487698 C691.029307,157.337509 691.781744,157.974867 692.153536,158.860087 C692.507624,159.63908 692.259763,160.692492 691.498474,161.143954 C690.781446,161.657381 689.772295,161.462633 689.126085,160.922649 C688.196605,160.196769 687.798256,159.001722 687.603507,157.877493 C687.205159,155.336913 687.718586,152.778628 688.364796,150.326569 C687.860221,150.539022 687.931039,151.238346 687.745142,151.680956 C686.638618,155.965419 686.64747,160.542004 687.851369,164.799911 C689.002154,168.871921 691.339134,172.651809 694.702969,175.245502 C697.243549,177.254951 700.359522,178.396884 703.502052,179.007686 C705.405274,179.335217 707.467836,179.459148 709.247128,178.591633 C710.132347,178.149023 710.796262,177.378882 711.654925,176.909715 C712.389657,176.537923 713.336842,176.661854 713.903383,177.254951 C714.558446,177.918866 714.57615,179.043095 714.036166,179.768975 C713.460773,180.55682 712.531293,180.99943 711.610664,181.247292 C709.583511,181.760719 707.467836,181.530562 705.440683,181.15877 C704.697099,181.043691 703.988923,180.71616 703.236486,180.71616 C703.634835,181.114509 704.236784,181.185326 704.759064,181.344666 C708.742552,182.32726 712.96505,182.32726 716.948539,181.380075 C721.533976,180.27355 725.871553,177.697561 728.598029,173.78489 C730.368468,171.350536 731.333358,168.455868 731.935307,165.543495 C732.253986,163.383559 732.422178,160.958057 731.112053,159.081392 C730.501251,158.178468 729.52751,157.319805 729.722258,156.124758 C729.801928,155.009381 731.05894,154.301206 732.085794,154.664146 C733.431328,155.097903 734.059834,156.540811 734.334252,157.815528 C734.856532,160.462334 734.334252,163.171107 733.634929,165.738243 C733.820825,165.711687 733.927051,165.605461 733.971312,165.428417 C735.175211,161.666233 735.387664,157.611927 734.68834,153.734665 C733.891643,149.184636 731.793672,144.749686 728.297054,141.660269 C726.199084,139.748195 723.614242,138.402661 720.878914,137.659076 C718.595047,136.977457 716.134136,136.508291 713.779452,137.092536 C712.619814,137.34925 711.725743,138.154799 710.796262,138.836419 C710.017269,139.438368 708.760257,139.482629 708.052081,138.730192 C707.414723,138.057425 707.467836,136.933196 708.016672,136.216168 C708.751405,135.251279 709.964156,134.808669 711.114941,134.605069 C712.947346,134.330651 714.832864,134.507694 716.647564,134.870635 C717.364592,134.994565 718.037359,135.322097 718.772091,135.37521 C718.621604,135.251279 718.471116,135.109644 718.276368,135.047678 C713.841418,133.613623 708.981562,133.560509 704.493498,134.817521 L704.493498,134.817521 Z M709.043527,132.374315 C713.947644,131.975966 718.957987,133.055934 723.269007,135.437175 C730.61633,139.394107 735.821421,147.113222 736.556154,155.443139 C737.113842,160.577413 736.01617,165.871026 733.51985,170.385647 C731.023531,174.935676 727.11086,178.706711 722.454605,181.008282 C718.798648,182.849539 714.691228,183.77902 710.592661,183.690498 C704.989221,183.646237 699.438894,181.636788 695.057057,178.157875 C691.277169,175.165833 688.355944,171.102675 686.762549,166.552646 C684.266229,159.550558 685.000962,151.468503 688.807406,145.068365 C691.356839,140.642267 695.296066,137.03057 699.899208,134.817521 C702.758468,133.445431 705.874441,132.59562 709.043527,132.374315 L709.043527,132.374315 Z M709.043527,131.073042 C703.732209,131.444834 698.544822,133.454283 694.357733,136.756152 C690.746037,139.588855 687.869073,143.351039 686.098634,147.582389 C684.18656,152.14127 683.540349,157.231283 684.328195,162.117695 C685.11604,167.597205 687.718586,172.77574 691.560439,176.759228 C695.18984,180.521412 699.925765,183.203627 705.033482,184.336708 C709.893338,185.434381 715.063021,185.177667 719.781241,183.540011 C725.092559,181.734162 729.793076,178.210988 733.024127,173.634403 C736.21977,169.164044 737.963653,163.702238 737.999062,158.213877 C738.043323,152.973376 736.520745,147.715172 733.643781,143.324482 C731.333358,139.73049 728.128863,136.720744 724.437497,134.587364 C719.807798,131.914001 714.372549,130.674693 709.043527,131.073042 L709.043527,131.073042 Z" id="GE-Logo"></path>
            </g>
        </g>
    </g>
</svg>