<?xml version="1.0" encoding="UTF-8"?>
<svg width="95px" height="34px" viewBox="0 0 95 34" version="1.1" xmlns="http://www.w3.org/2000/svg" xmlns:xlink="http://www.w3.org/1999/xlink">
    <!-- Generator: Sketch 52.1 (67048) - http://www.bohemiancoding.com/sketch -->
    <title>Nike Logo</title>
    <desc>Created with Sketch.</desc>
    <g id="Page-1" stroke="none" stroke-width="1" fill="none" fill-rule="evenodd">
        <g id="Stylefit-website" transform="translate(-110.000000, -936.000000)" fill="#DDDDDD">
            <g id="#3" transform="translate(0.000000, 795.000000)">
                <path d="M122.089297,142.505917 C115.95257,149.730595 110.062332,158.680697 110.002835,165.369899 C109.977336,167.885787 110.7848,170.087189 112.705715,171.753114 C115.476591,174.150008 118.536455,174.99147 121.57082,174.99997 C126.007622,175.00847 130.418926,173.215049 133.869772,171.829611 C139.683514,169.500715 203.949152,141.562459 203.949152,141.562459 C204.569624,141.247973 204.45063,140.85699 203.677164,141.052481 C203.362678,141.128978 133.716779,160.032136 133.716779,160.032136 C132.373839,160.40612 130.9969,160.601611 129.66246,160.610111 C124.307698,160.644109 119.54791,157.669242 119.581909,151.396521 C119.598908,148.94863 120.346874,145.990762 122.089297,142.505917" id="Nike-Logo"></path>
            </g>
        </g>
    </g>
</svg>