<?xml version="1.0" encoding="UTF-8"?>
<svg width="160px" height="34px" viewBox="0 0 160 34" version="1.1" xmlns="http://www.w3.org/2000/svg" xmlns:xlink="http://www.w3.org/1999/xlink">
    <!-- Generator: Sketch 52.1 (67048) - http://www.bohemiancoding.com/sketch -->
    <title>Tumblr Logo</title>
    <desc>Created with Sketch.</desc>
    <g id="Page-1" stroke="none" stroke-width="1" fill="none" fill-rule="evenodd">
        <g id="Stylefit-website" transform="translate(-472.000000, -937.000000)" fill="#DDDDDD">
            <g id="#3" transform="translate(0.000000, 795.000000)">
                <path d="M501.760784,175.147951 C494.22073,175.147951 492.587004,169.458196 492.587004,165.817598 L492.587004,151.168351 L500.499061,151.168351 L500.499061,165.410738 C500.499061,167.44161 501.041922,168.997621 503.603654,168.99705 C503.644226,168.99705 503.685941,168.99705 503.727655,168.995907 C507.641969,168.92162 508.205973,165.985599 508.205973,165.20388 L508.21683,157.227823 C508.207687,156.592961 507.921399,156.303245 507.240252,156.303245 L505.169951,156.302673 L505.169951,151.168351 L515.914599,151.168351 L515.914599,168.65419 C515.914599,169.310195 516.297459,169.645626 516.920892,169.686197 C517.45461,169.721626 518.167758,169.777055 518.167758,169.777055 L518.167758,174.799948 L509.351124,174.799948 L509.286552,171.854784 C507.742541,173.767369 504.771663,175.071379 502.178501,175.142236 C502.036786,175.146236 501.898499,175.147951 501.760784,175.147951 M578.531047,156.670104 C578.471046,156.670104 578.410474,156.671247 578.349902,156.673533 C575.998457,156.760962 574.479018,158.204401 574.479018,159.849556 L574.479018,163.654726 L574.480161,163.654726 L574.479018,163.65644 L574.479018,166.946749 C575.617883,168.945621 577.319038,169.309052 578.437903,169.309052 C578.57619,169.309052 578.705905,169.303337 578.824192,169.294766 C580.122487,169.198765 582.838506,168.994192 582.838506,162.801577 C582.838506,158.327259 580.837349,156.670104 578.531047,156.670104 M604.755805,174.775377 L591.582568,174.775377 L591.582568,169.753055 C591.582568,169.753055 592.778577,169.67534 593.312295,169.639911 C593.935728,169.599911 594.320302,169.241051 594.320302,168.585047 L594.320302,149.982057 C594.311159,149.347195 594.026586,149.057479 593.346581,149.057479 L591.233995,149.057479 L591.233995,144.035157 C594.580876,143.678012 599.227194,141.997428 599.227194,141.997428 L602.023786,141.997428 L602.016929,168.585047 C602.016929,169.241051 602.401503,169.599911 603.025507,169.639911 C603.558654,169.67534 604.755805,169.753055 604.755805,169.753055 L604.755805,174.775377 M620.099344,174.775377 L607.18668,174.775377 L607.18668,169.752484 C607.18668,169.752484 608.261545,169.67534 608.795834,169.639911 C609.418696,169.599911 609.805556,169.241051 609.805556,168.585047 L609.805556,157.199251 C609.796413,156.564389 609.54384,156.275244 608.862692,156.275244 L606.939821,156.278102 L606.939821,151.143208 L616.110744,151.143208 L616.833606,153.312938 C618.568475,151.657497 620.99535,150.775777 623.198794,150.775777 C626.034243,150.775777 628.500546,152.236358 628.645119,155.388952 C628.645119,157.369538 627.03025,159.521553 624.156515,159.521553 C623.018222,159.521553 620.685633,158.800405 620.370203,156.385531 C617.81647,157.00325 617.485039,159.418124 617.485039,160.864991 L617.487896,168.585047 C617.487896,169.241051 617.874185,169.599911 618.498189,169.639911 C619.031336,169.67534 620.099344,169.752484 620.099344,169.752484 L620.099344,174.775377 M533.597583,174.799948 L520.668348,174.795948 L520.668348,169.773055 C520.668348,169.773055 521.749498,169.695912 522.283216,169.660483 C522.906649,169.619911 523.291795,169.261051 523.291795,168.605047 L523.291795,167.309609 L523.291224,157.259823 C523.282081,156.625533 522.99465,156.335245 522.314074,156.335245 L520.114058,156.302673 L520.114058,151.167208 L529.674698,151.167208 L529.903842,154.246087 C531.429567,152.183787 534.193587,150.979778 536.785606,150.854634 C537.013607,150.843777 537.236466,150.838063 537.455325,150.838063 C540.975921,150.838063 543.283366,152.24093 544.759948,154.373517 L544.906235,154.549518 L545.146808,154.246087 C546.672533,152.183787 549.436553,150.979778 552.027429,150.854634 C552.256573,150.843777 552.480003,150.838063 552.700005,150.838063 C556.226887,150.838063 558.589761,152.229501 560.048057,154.086086 C561.738927,156.240958 561.769784,158.880977 561.769784,161.436424 C561.769784,162.770719 561.769213,168.605047 561.769213,168.605047 C561.769213,169.261051 562.147501,169.618197 562.771506,169.660483 C563.36751,169.701055 564.385803,169.773055 564.385803,169.773055 L564.385803,174.795948 L551.454282,174.795948 L551.454282,169.774198 C551.454282,169.774198 552.534861,169.697055 553.06915,169.661054 C553.692012,169.619911 554.077729,169.262194 554.077729,168.605618 L554.078872,167.309609 L554.078872,160.575275 C554.078872,158.647261 553.398296,156.990107 550.679991,156.990107 C547.309109,156.990107 546.362245,159.622697 546.362245,160.906135 C546.362245,162.190144 546.351388,168.605047 546.351388,168.605047 L546.370817,168.605047 C546.370817,169.261051 546.750248,169.618197 547.37311,169.660483 C547.969685,169.701055 548.98855,169.773055 548.98855,169.773055 L548.98855,174.795948 L536.073029,174.795948 L536.073029,169.774198 C536.073029,169.774198 537.15418,169.697055 537.687898,169.661054 C538.310759,169.619911 538.695905,169.262194 538.695905,168.605618 C538.695905,168.605618 538.693048,162.503289 538.693048,160.575275 C538.693048,158.647261 538.135901,156.990107 535.417024,156.990107 C532.046715,156.990107 530.984993,159.622697 530.984993,160.906135 C530.984993,162.190144 530.974707,168.605047 530.974707,168.605047 C530.974707,169.261051 531.359281,169.618197 531.982714,169.660483 C532.578718,169.701055 533.597583,169.773055 533.597583,169.773055 L533.597583,174.799948 M627.370253,175.07195 C624.81252,175.07195 622.740505,173.041078 622.740505,170.539346 C622.740505,168.0359 624.81252,166.0056 627.370253,166.0056 C629.928557,166.0056 632,168.0359 632,170.539346 C632,173.041078 629.928557,175.07195 627.370253,175.07195 M580.513347,175.101665 C576.590461,175.101665 574.174444,172.835934 573.997871,172.737648 L573.093865,174.771948 L566.763534,174.778805 L566.763534,149.985485 C566.754963,149.350052 566.462389,149.060336 565.782384,149.060336 L563.56694,149.057479 L563.681226,144.035157 C567.185251,143.60544 571.710998,141.997428 571.710998,141.997428 L574.479018,141.997428 L574.479018,152.965506 C575.977314,151.663211 578.040186,150.915206 579.995057,150.829491 C580.218487,150.819777 580.436775,150.815205 580.651062,150.815205 C589.56084,150.815205 590.638562,159.111265 590.638562,162.704433 C590.638562,169.718198 587.572254,174.341088 581.733355,175.029664 C581.312209,175.079379 580.905349,175.101665 580.513347,175.101665 M484.922949,175.141665 C477.974328,175.141665 475.786313,170.116486 475.786313,166.567318 L475.786313,156.635818 L472,156.635818 L472,151.931785 C476.97375,150.176915 478.170901,145.783741 478.452618,143.280866 C478.472046,143.108865 478.609761,143.040864 478.688619,143.040864 L483.493225,143.040864 L483.493225,151.167779 L489.586983,151.167779 L489.586983,156.635818 L483.468653,156.635818 L483.468653,166.070171 C483.490368,167.406752 483.980657,169.237623 486.486389,169.237623 C486.531532,169.237623 486.577818,169.237051 486.624104,169.235908 C487.495539,169.213623 488.661262,168.965621 489.271552,168.68219 L490.849277,173.259366 C490.256702,174.111372 487.578968,175.099379 485.168665,175.139379 C485.085808,175.141093 485.004664,175.141665 484.922949,175.141665" id="Tumblr-Logo"></path>
            </g>
        </g>
    </g>
</svg>