<?xml version="1.0" encoding="UTF-8"?>
<svg width="105px" height="45px" viewBox="0 0 105 45" version="1.1" xmlns="http://www.w3.org/2000/svg" xmlns:xlink="http://www.w3.org/1999/xlink">
    <!-- Generator: Sketch 52.1 (67048) - http://www.bohemiancoding.com/sketch -->
    <title>Vans Logo</title>
    <desc>Created with Sketch.</desc>
    <g id="Page-1" stroke="none" stroke-width="1" fill="none" fill-rule="evenodd">
        <g id="Stylefit-website" transform="translate(-985.000000, -931.000000)" fill="#DDDDDD">
            <g id="#3" transform="translate(0.000000, 795.000000)">
                <g id="Vans-Logo" transform="translate(985.000000, 135.997428)">
                    <path d="M104.723732,18.7922767 C104.121571,17.1957925 102.711787,16.2190202 101.292925,15.5560375 C92.9334726,12.8614409 85.0687608,8.98854467 77.2860519,5.1162536 C73.3508213,3.29736311 69.1671614,2.18563401 64.8197983,1.31174352 C53.3536167,-1.03971182 41.5067723,0.408198847 31.2022478,4.02600865 C21.5371037,7.57785303 12.772781,13.7628674 1.96927954,14.4352305 L1.16226225,15.1336167 C0.743170029,16.3969452 -0.0774639769,17.8121758 0.37370317,19.2470749 L7.50916427,32.3118588 C8.12948127,33.1987608 8.42087896,34.5507493 9.68632565,34.8124928 L15.1578242,34.9934438 C16.8983429,35.3423343 19.0479683,34.9075072 20.4504899,36.2044236 C21.609121,37.9700576 19.5814409,40.3917147 21.374611,42.0121037 C23.5611527,44.0355476 26.4022046,44.8035303 29.49683,44.8601153 C32.2005043,44.6709942 35.1395965,44.3305764 36.6915994,42.0547695 C37.4235735,40.9599856 36.9082565,38.8070317 38.735317,38.6021758 L44.1959222,39.4954323 C54.5721614,40.6392363 65.6812824,40.368415 75.4856196,38.1718876 C76.1204611,38.1007781 77.0754467,38.0402594 77.4603458,38.6811527 C77.9892795,40.0446398 78.6722334,41.6414265 80.2502594,42.143732 C85.0751153,43.029121 89.547147,41.4471614 93.0956628,38.4151729 C95.1118444,36.6274496 95.6386599,33.8596254 95.3717723,31.157464 C96.0259798,30.0599568 97.3822046,29.6856484 98.347781,28.8332421 C101.33438,26.1912968 105.280202,23.1665706 104.723732,18.7922767 L104.723732,18.7922767 Z M100.012349,16.245951 C99.5914409,17.4293948 99.3336311,18.6921182 98.5977233,19.6328818 L97.180072,19.129366 C97.441513,17.9444092 97.9410951,16.7648991 98.5919741,15.6634582 L100.012349,16.245951 L100.012349,16.245951 Z M96.0671326,14.9841354 C96.69683,15.0758213 97.3343948,15.244366 97.7226225,15.4918876 L96.3912104,18.879121 C95.7545533,18.7874352 95.284928,18.6185879 94.8189337,18.2125072 C95.1563256,17.1083429 95.4931124,15.9239914 96.0671326,14.9841354 L96.0671326,14.9841354 Z M93.829755,15.8165706 L93.9786311,16.2940634 C94.2597406,18.3613833 94.1411239,20.4208357 94.5018156,22.4140202 C95.2952161,22.4273343 95.8613689,21.8045965 96.5767003,21.5794669 C96.9625072,22.2215706 97.02817,23.174438 97.0121326,23.9672334 C95.3285014,24.8907493 93.6415418,26.0493804 91.8044957,26.8085879 C91.4686167,23.387464 91.379049,19.6567867 91.2071758,16.0840634 C92.007536,15.8592363 92.9585879,15.799928 93.829755,15.8165706 L93.829755,15.8165706 Z M88.5861095,16.1936023 L88.7358934,16.7512824 C88.9132133,19.7702594 88.8641931,22.5489769 89.3649856,25.4913977 C89.8382421,25.6638761 90.3211816,25.1939481 90.8812824,25.0438617 C91.1872046,25.7631268 91.0894669,26.55683 91.0785735,27.2682277 C89.632781,28.1938617 88.112853,28.8810519 86.5965562,29.4069597 C86.1931988,25.3558357 86.0437176,20.6698703 85.9617147,16.4635159 C86.7596542,16.2402017 87.715245,16.17817 88.5861095,16.1936023 L88.5861095,16.1936023 Z M78.8099135,17.0463112 C79.6937896,16.5845533 80.9595389,16.7670173 82.0691499,16.627219 C83.743098,16.1836167 83.15183,18.3144813 83.6898415,19.121196 C84.4206052,22.6243228 85.3087176,26.1316859 85.9550576,29.7119741 C85.1513689,30.1779683 84.3543372,30.555 83.3984438,30.621268 C83.1736167,30.0626801 83.1079539,29.344928 82.7999135,28.7833141 C82.2446542,28.5376081 81.6055764,29.0011816 81.0485014,29.0668444 C80.4781124,29.770072 80.7749568,30.8899712 80.5244092,31.7556916 C79.5618588,32.0567723 78.6843372,32.5167147 77.7308646,32.5772334 L77.6573343,32.1796254 L78.8099135,17.0463112 L78.8099135,17.0463112 Z M69.2776081,17.5831124 C70.0794813,17.2009366 71.1878818,17.4596542 72.0611671,17.3165274 L72.4394092,18.1961671 C72.7982853,20.4244669 73.2300865,22.6560951 73.7478242,24.8871182 C74.065245,24.8135879 73.9926225,24.4138617 73.9992795,24.0991643 L74.4295677,17.8369885 C74.2767579,17.6738905 74.5170173,17.3610086 74.520951,17.2030548 C75.3188905,16.9815562 76.2723631,16.9972911 77.1414121,17.0139337 C77.0412536,22.4866427 76.708098,27.7965562 76.294755,33.0287032 C75.1793948,33.4018012 74.0591931,33.7800432 72.947464,33.9174207 C72.2681412,32.0010951 71.9824928,30.0923343 71.5419164,28.177219 C71.2226801,28.1723775 71.296513,28.5708934 71.2940922,28.8871037 L70.714928,34.43183 C69.673098,34.8881412 68.4031124,34.7849568 67.2904755,35.0028242 L66.9842507,34.2856772 L63.5576801,18.0327666 L63.7991499,17.8778386 L66.8160086,17.695072 L67.1258646,18.0975216 C67.3948703,20.8807781 67.8992939,23.5868732 68.4031124,26.2944813 C68.935072,23.4479827 68.9862104,20.5924063 69.2776081,17.5831124 L69.2776081,17.5831124 Z M62.5125216,10.1586744 C64.080562,11.2195677 66.7924063,10.3953026 67.5431412,12.7119597 C67.923804,13.6714841 67.7416427,14.9366282 67.0120893,15.6380403 C65.7983862,16.9649135 63.9673919,17.3286311 62.1491066,16.8956196 C61.360245,16.645072 60.4091931,16.4665418 59.7086888,15.8979683 C59.9598415,15.1100144 60.3665274,14.5598991 60.8521902,14.0155331 C61.8041499,14.1940634 62.7424928,14.8443372 63.9344092,14.6279827 C64.4131124,14.6361527 64.8957493,14.4061816 65.059755,13.9353458 C65.0936455,12.1899856 62.9373631,13.0233285 61.8322911,12.6054467 C60.80317,12.4263112 59.9495533,11.5400144 59.6484726,10.5813977 C59.4303026,9.54592219 59.6055043,8.51528818 60.3329395,7.81538905 C62.1043228,6.42134006 65.0428098,6.47399135 66.9210086,7.70070605 C66.9881844,8.33554755 66.4208213,9.03998559 65.9354611,9.50567723 C64.993487,9.17282421 63.8160951,8.35491354 62.7742651,9.05208934 C62.4465562,9.36436599 62.2008501,9.83580692 62.5125216,10.1586744 L62.5125216,10.1586744 Z M49.0362104,35.1429251 L48.7983718,35.2173631 L46.104683,34.9311095 L45.8837896,34.1340778 L45.1197406,19.596268 L45.2059798,19.1230115 C46.0033141,18.9789769 46.9534582,19.0733862 47.8303746,18.9323775 C48.2606628,21.2429827 48.2195101,23.5405764 48.492147,25.9244092 C49.0410519,26.4149135 50.0002738,26.0372767 50.7110663,26.0493804 L50.876585,25.8124496 L50.5279971,18.9027233 C51.324121,18.5995245 52.3605043,18.5423343 53.3121614,18.5607925 L53.4604323,18.9559798 L54.5098271,35.3211527 C54.5881988,35.4812248 54.4232853,35.6391787 54.2677522,35.6358501 C53.3154899,35.5396254 52.2781988,35.8367723 51.5725504,35.2681988 L51.1298559,29.2305476 C50.4226945,28.8995101 49.5424496,29.2783573 48.8274207,29.2671614 L48.6661383,29.5040922 L49.0362104,35.1429251 L49.0362104,35.1429251 Z M42.5455764,34.3858357 L42.460245,34.6251873 L39.9272334,34.2596542 C39.5256916,30.2878098 39.281196,26.3117291 38.8793516,22.3386744 L38.7250288,22.0981124 L36.4231988,22.1347262 C36.4371182,21.3410231 36.0561527,20.381196 36.4676801,19.6758501 C38.9310951,19.4843084 41.5527666,19.3738617 44.0140634,19.2591787 L44.2479683,19.5015562 L44.2863977,21.6442219 C43.5722767,21.7912824 42.7755476,21.8554323 41.9839625,21.84 L41.7397695,22.1516715 L42.5455764,34.3858357 L42.5455764,34.3858357 Z M43.9877378,16.3228098 L43.7256916,17.746513 C42.9283573,17.8926657 41.9754899,17.9519741 41.2640922,17.8618012 C41.8777522,14.6975793 42.5673631,11.6943372 43.3368588,8.69321326 C44.4546398,8.31829971 45.9603458,8.34523055 47.1528674,8.36853026 L48.062464,10.6857925 L50.1618588,17.229683 C49.4419885,17.5337896 48.5711239,17.3588905 47.697536,17.5014121 C47.3102161,16.9404035 47.4887464,15.8323055 46.5370893,15.8156628 C45.6628963,15.8749712 44.5569164,15.6180692 43.9877378,16.3228098 L43.9877378,16.3228098 Z M53.4129251,13.0835447 C53.2555764,13.002147 53.2516427,13.162219 53.170245,13.2384726 L53.3381844,16.9724784 C52.6981988,17.3558646 51.8300576,17.1022911 51.0345389,17.2481412 L50.8823343,16.7670173 C50.6962392,14.0669741 50.4357061,11.0476945 50.4883573,8.27048991 C51.2835735,8.04626801 52.2370461,7.98514409 53.1082133,7.92311239 L53.4250288,8.08742075 L55.7395677,11.7006916 L56.0606196,11.6265562 C55.9177954,10.5904755 56.0240058,9.16646974 55.8881412,7.89315562 C56.6071037,7.58904899 57.6389481,7.68587896 58.4326513,7.70070605 C58.6928818,10.7224063 58.8747406,13.7425937 58.9812536,16.6780548 C58.0214265,16.9785303 56.9166571,16.8009078 55.9646974,16.859611 C55.0345245,15.5751009 54.4199568,14.3731988 53.4129251,13.0835447 L53.4129251,13.0835447 Z M61.0966859,18.0663545 L61.3354323,18.1507781 C61.4773487,18.8703458 61.4610086,19.6592075 61.4510231,20.3742363 L58.5863689,20.7978674 L58.3421758,21.1107493 L58.7388761,25.4054611 C59.4469452,25.7364986 60.4031412,25.4357205 61.1166571,25.6042651 C61.2558501,26.4811816 61.4026081,27.4346542 61.3027522,28.2235159 C60.660951,28.6141643 59.8732997,28.3593804 59.1555476,28.5839049 L58.9918444,28.8190202 L59.2314986,32.9518444 L59.6236599,33.2735014 L62.3237032,33.323732 C62.6317435,33.9655331 62.617219,34.7574207 62.6023919,35.4715418 C60.6903026,35.8337464 58.5467291,35.7944092 56.4830403,35.8337464 L56.3377954,35.2781844 L55.2608646,20.2598559 L55.2166859,18.5141931 C57.1272622,18.1544092 59.1095533,18.1889049 61.0966859,18.0663545 L61.0966859,18.0663545 Z M34.2775072,5.1162536 C35.4909078,8.1518732 36.1448127,11.4150432 37.1993516,14.4506628 L37.601196,14.2206916 L39.3574496,4.96979827 L39.602853,4.65661383 L64.3870893,3.13154179 C65.1817003,3.30432277 66.6238617,2.45917867 66.6011671,3.7273487 C66.4283862,4.27988473 66.9660951,5.16315562 66.2498559,5.46574928 L44.4022911,6.80775216 L42.1004611,7.00443804 L41.7730548,7.47255043 L39.7535447,17.9907061 L39.3547262,18.1417003 L35.6990922,18.3126657 L35.2355187,17.6687464 C33.9631124,13.5204899 32.5303314,9.44788184 31.2597406,5.2978098 C32.2123055,5.15589337 33.3282709,5.0160951 34.2775072,5.1162536 L34.2775072,5.1162536 Z M33.4477954,20.0171758 L33.5222334,20.2571326 L33.5642939,22.239121 C32.6879827,22.4633429 31.8140922,22.4473055 30.8612248,22.5877089 C30.4530259,23.1335879 30.8358069,23.8552738 30.8243084,24.5724207 C31.5281412,24.9794092 32.2498271,24.5194669 33.1225072,24.6916427 C33.349755,25.3298127 33.2520173,26.2817723 33.3161671,27.0775937 C32.598415,27.2990922 31.8050144,27.2083141 31.0079827,27.4295101 C30.7386744,29.1718444 31.1859078,30.7668156 31.0745533,32.4319885 C30.2006628,32.493415 29.1757781,32.1554179 28.3049135,32.0601009 C27.8997406,28.167536 27.5717291,24.4305043 27.4888184,20.3824063 C29.4777666,20.101902 31.3850144,19.9003746 33.4477954,20.0171758 L33.4477954,20.0171758 Z M20.6562536,20.8126945 C22.4872478,20.5267435 24.4722622,20.4855908 26.3776945,20.3630403 L26.5329251,20.6810663 L26.734755,22.5916427 C26.6503314,22.7471758 26.4911671,22.8225216 26.2512104,22.9021037 L23.94817,23.0933429 C23.6207637,23.5638761 23.846196,24.2810231 23.9179107,24.8390058 C24.4625793,25.3261816 25.4202882,25.0251009 26.1344092,25.0393228 L26.366196,25.284121 L26.4829971,27.5057637 C25.8418012,27.9693372 24.7370317,27.5511527 24.0952305,28.0153314 C23.9151873,29.1225216 24.2126369,30.2412104 24.1115706,31.4304035 C23.2376801,31.4146686 22.2103746,31.2358357 21.3395101,31.0612392 L21.1080259,30.7368588 L20.5736455,20.9688329 L20.6562536,20.8126945 L20.6562536,20.8126945 Z M16.6916715,20.740072 C17.6375793,20.9936455 18.5032997,21.4886888 19.0449424,22.2121902 C20.3551729,24.2973631 20.3802882,27.1553602 19.4667579,29.3582421 C18.8110375,30.5359366 17.6118588,31.0694092 16.3388473,31.2073919 C14.9096974,31.2600432 13.6527233,30.5217147 12.9625072,29.2387176 C12.0465562,27.2394813 11.7857205,24.2973631 12.9319452,22.335951 C13.8273199,21.1618876 15.194438,20.1548559 16.6916715,20.740072 L16.6916715,20.740072 Z M10.9239337,19.2815706 C11.6232277,20.169683 11.7618156,21.2820173 12.3781988,22.2475937 C12.0526081,22.717219 11.3345533,22.8600432 10.8576657,23.0909222 C10.3937896,22.210072 9.70085014,21.1655187 9.40340058,20.0492507 C9.72929395,19.6592075 10.2893948,19.3535879 10.9239337,19.2815706 L10.9239337,19.2815706 Z M8.61302594,24.0791931 C8.15853026,23.0412968 7.46165706,22.1568156 7.16329971,21.0366138 C7.64684438,20.6483862 8.20512968,20.5031412 8.76069164,20.4332421 C9.29961095,21.3954899 9.83368876,22.4379251 10.1329539,23.4740058 C9.65304035,23.7817435 9.08809798,24.2495533 8.61302594,24.0791931 L8.61302594,24.0791931 Z M31.593804,43.1531844 C29.0402161,43.7387032 25.7900576,43.5995101 24.082219,41.5830259 C23.9348559,40.9503026 24.339121,40.5560231 24.8220605,40.2491931 C27.2930403,39.5807637 30.1404467,40.1090922 32.0973199,41.4955764 L32.4053602,41.9760951 C32.3971902,42.5343804 31.9920173,42.9217003 31.593804,43.1531844 L31.593804,43.1531844 Z M35.5081556,41.559121 C35.4249424,41.7939337 35.260634,42.0281412 35.0206772,42.1043948 L34.5486311,42.0157349 C31.6761095,38.6321326 26.526268,38.142536 22.3780115,39.3329395 C21.9834294,39.2454899 21.9897839,38.8463689 21.9961383,38.5325793 C22.0055187,37.8962248 22.4170461,37.2692507 23.0567291,36.961513 C27.4310231,36.3324207 32.0204611,36.9724063 35.3020893,39.8092219 C35.8506916,40.1384438 35.5986311,41.0026513 35.5081556,41.559121 L35.5081556,41.559121 Z M90.8761383,38.2148559 C89.3395677,40.0119597 87.4138617,40.9300288 85.1153602,40.9672478 C84.7147262,40.8017291 84.2420749,40.7929539 84.0154323,40.3112248 C83.8765418,39.2766571 84.6820461,38.6557349 85.3265706,38.0329971 C86.7000432,36.8674063 88.4538761,36.2688761 90.3511383,36.6207925 L90.8198559,36.9412392 C91.1345533,37.2704611 91.0449856,37.7437176 90.8761383,38.2148559 L90.8761383,38.2148559 Z M93.1434726,35.8007637 C92.8965562,36.1908069 92.3452305,36.0222622 92.0308357,35.9396542 C89.193415,34.8515274 85.9980259,36.061902 83.8193516,38.084438 C82.5387752,38.5386311 82.0821614,41.9422046 80.2914121,40.0007637 C79.9028818,39.6824352 79.9888184,39.126268 80.1564553,38.7307781 C82.9851009,35.7711095 86.434366,33.7700576 90.4074207,33.6051441 C91.4392651,33.7022767 92.7122767,33.4111816 93.2514986,34.3716138 C93.3204899,34.8485014 93.469366,35.4860663 93.1434726,35.8007637 L93.1434726,35.8007637 Z M103.4017,21.8654179 C100.626311,25.9386311 95.6607493,28.3863112 91.495245,30.6896542 C79.3899856,37.2922478 65.2924496,40.1233141 50.5537176,38.9789049 C40.6416571,38.5586023 31.650389,35.615879 21.8272911,34.7192939 L10.8174207,33.7210375 C10.6643084,33.5618732 10.3453746,33.5549135 10.4282853,33.2405187 C10.5959222,32.7648415 10.6056052,32.2089769 11.0867291,31.9820317 C15.4519452,32.063732 19.4858213,32.6958501 23.6004899,33.2444524 L42.7519452,35.9795965 C55.9713545,37.8099856 69.950879,37.0365562 81.6921182,32.730951 C89.4376081,30.1749424 96.4992363,25.7861239 103.186254,20.6677522 C103.576297,20.914366 103.484308,21.4696254 103.4017,21.8654179 L103.4017,21.8654179 Z" id="Fill-1"></path>
                    <path d="M16.4665418,28.5893516 C17.6790346,27.3420605 16.8417579,25.4245245 16.7116427,23.9118588 C16.4816715,23.4337608 15.6171614,23.0219308 15.2116859,23.5665994 C14.70817,24.9095101 14.9157493,26.6545677 15.2864265,28.0129107 C15.4371182,28.4910086 15.9884438,28.6607637 16.4665418,28.5893516" id="Fill-2"></path>
                    <path d="M82.2243804,25.7582853 C82.0854899,24.4072046 81.7959078,22.9710951 81.4240202,21.6968732 C81.1586455,23.0412968 81.0536455,24.5454899 81.106902,25.894755 C81.4987608,26.060879 81.8966715,25.9882565 82.2243804,25.7582853" id="Fill-3"></path>
                    <path d="M45.1908501,11.3451441 C44.8628386,11.9763545 44.9278963,12.7685447 44.7557205,13.4796398 C45.1475793,13.7271614 45.626585,13.5758646 46.0257061,13.4257781 C45.8819741,12.7092363 45.5766571,11.987853 45.1908501,11.3451441" id="Fill-4"></path>
                </g>
            </g>
        </g>
    </g>
</svg>