<?xml version="1.0" encoding="UTF-8"?>
<svg width="163px" height="34px" viewBox="0 0 163 34" version="1.1" xmlns="http://www.w3.org/2000/svg" xmlns:xlink="http://www.w3.org/1999/xlink">
    <!-- Generator: Sketch 52.1 (67048) - http://www.bohemiancoding.com/sketch -->
    <title>Wired Logo</title>
    <desc>Created with Sketch.</desc>
    <g id="Page-1" stroke="none" stroke-width="1" fill="none" fill-rule="evenodd">
        <g id="Stylefit-website" transform="translate(-257.000000, -936.000000)" fill="#DDDDDD">
            <g id="#3" transform="translate(0.000000, 795.000000)">
                <path d="M409.8125,160.675658 C409.8125,160.675658 409.713022,165.070665 406.316989,165.070665 L399.22589,165.070665 L399.22589,150.089048 L406.017357,150.089048 C406.017357,150.089048 409.8125,149.788816 409.8125,154.883165 L409.8125,160.675658 L409.8125,160.675658 Z M387.340074,141 L420,141 L420,174.259191 L387.340074,174.259191 L387.340074,141 Z M414.306985,160.57618 L414.306985,154.283901 C414.306985,145.29493 404.31964,146.393382 404.31964,146.393382 L394.631327,146.393382 L394.631327,169.065364 C394.631327,169.065364 398.326993,168.965886 406.516544,168.965886 C414.706096,168.965886 414.306985,160.57618 414.306985,160.57618 Z M340.397871,156.28125 C337.601103,156.28125 334.205669,156.381327 334.205669,156.381327 L334.205669,150.188526 L340.497949,150.188526 C340.497949,150.188526 343.893382,149.689338 343.893382,152.885217 C343.893382,155.681985 343.19464,156.28125 340.397871,156.28125 Z M322.319853,141 L354.979779,141 L354.979779,174.259191 L322.319853,174.259191 L322.319853,141 Z M344.992434,158.478754 C344.992434,158.478754 348.387868,158.179121 348.387868,152.086397 C348.387868,145.993673 342.79493,146.293305 342.79493,146.293305 L329.810662,146.293305 L329.810662,168.666254 L334.205669,168.666254 L334.205669,159.976915 C334.205669,159.976915 338.700154,159.876838 341.296768,159.876838 C343.893382,159.876838 343.893382,163.671982 343.893382,163.671982 L343.893382,168.566176 L348.387868,168.566176 L348.387868,163.372349 C348.387868,158.67771 344.992434,158.478754 344.992434,158.478754 Z M257,141 L289.659926,141 L289.659926,174.259191 L257,174.259191 L257,141 Z M259.796768,146.393382 L264.391331,168.865809 L269.884191,168.865809 L273.779412,152.486107 L277.375,168.765732 L282.968537,168.765732 L287.5625,146.393382 L283.268169,146.393382 L280.271846,163.772059 L276.276548,146.49346 L271.382353,146.393382 L267.387654,163.472426 L264.291254,146.393382 L259.796768,146.393382 Z M314.280118,150.03871 L308.287471,150.03871 L308.287471,165.020926 L314.280118,165.020926 L314.280118,168.81607 L298.499081,168.81607 L298.499081,165.020926 L303.99254,165.020926 L303.99254,150.03871 L298.499081,150.03871 L298.499081,146.243566 L314.280118,146.243566 L314.280118,150.03871 Z M360.972426,146.293305 L380.049419,146.293305 L380.049419,153.584559 L375.954044,153.584559 L375.954044,149.988971 L368.163603,149.988971 L368.163603,155.282276 L374.15625,155.282276 L374.15625,158.977941 L368.163603,158.977941 L368.163603,165.070665 L376.253676,165.070665 L376.253676,161.475077 L380.049419,161.475077 L380.049419,168.765732 L360.972426,168.765732 L360.972426,165.070665 L364.068827,165.070665 L364.068827,149.988971 L360.972426,149.988971 L360.972426,146.293305 Z" id="Wired-Logo"></path>
            </g>
        </g>
    </g>
</svg>